# xmcd CD database file
#
# Track frame offsets:
#	150
#	20800
#	45395
#	66612
#	87187
#	102352
#	124655
#	142795
#	162380
#
# Disc length: 2349 seconds
#
# Revision: 0
# Processed by: cddbd v1.5.1PL0 Copyright (c) Steve Scherf et al.
# Submitted via: CDex 1.51
#
DISCID=77092b09
DTITLE=Jiggs Whigham - Brazilian Portrait
DYEAR=1992
DGENRE=Jazz
TTITLE0=I Know You
TTITLE1=Maos de Afeto
TTITLE2=De Onde Vens?
TTITLE3=April Child
TTITLE4=La Voglia - La Pazzia
TTITLE5=Aparecida
TTITLE6=Lugar Comun
TTITLE7=Ve
TTITLE8=A Felicidade - Adieu Tristesse
EXTD=YEAR: 1992
EXTT0=
EXTT1=
EXTT2=
EXTT3=
EXTT4=
EXTT5=
EXTT6=
EXTT7=
EXTT8=
PLAYORDER=
